<?xml version="1.0" encoding="UTF-8" standalone="no"?>
<!-- Created with Inkscape (http://www.inkscape.org/) -->

<svg
   width="63.935242"
   height="74.095703"
   viewBox="0 0 16.916199 19.604488"
   version="1.1"
   id="svg1"
   xmlns="http://www.w3.org/2000/svg"
   xmlns:svg="http://www.w3.org/2000/svg">
  <defs
     id="defs1" />
  <g
     id="g121"
     transform="translate(-169.45071,23.614063)">
    <path
       id="path121"
       style="display:inline;fill:#333333;fill-opacity:1;stroke:none;stroke-width:0.0132292;stroke-linecap:round;stroke-opacity:1"
       d="m 174.49019,-23.614063 -1.07022,5.17e-4 v 1.070736 0.252697 1.071253 0.252698 l 5.1e-4,1.070735 v 0.252698 1.070736 0.253214 1.070736 0.252698 l 5.2e-4,1.070735 v 0.253215 1.070735 0.252698 1.070736 0.252698 l 5.2e-4,1.071252 v 0.252698 1.070735 0.252698 1.0712532 0.252697 1.070736 l 5.1e-4,0.252698 v 1.070735 0.253215 1.070736 0.253214 1.070219 l 1.07074,-5.17e-4 v -1.070219 -0.253214 l -5.2e-4,-1.070736 v -0.253214 -1.070219 -0.253215 -1.070735 -0.252698 l -5.1e-4,-1.0707362 v -0.252698 -1.071252 -0.252698 -1.070735 -0.252698 l -5.2e-4,-1.071253 v -0.252697 -1.070736 -0.252698 -1.070735 -0.253215 l -5.2e-4,-1.070736 v -0.252697 -1.070736 -0.252698 -1.071252 l -5.1e-4,-0.252698 v -1.070736 -0.252697 z m -2.39314,5.17e-4 v 1.070736 0.252697 1.071253 0.252698 1.071252 0.252698 1.070219 0.253214 l 5.2e-4,1.070736 v 0.253214 1.070736 0.252698 1.070735 0.252698 1.071253 0.252697 l 5.1e-4,1.071253 v 0.252697 1.070736 0.252698 1.0712522 0.252698 1.070736 0.252697 l 5.2e-4,1.070736 v 0.253215 1.070735 0.253215 1.070219 h 1.07074 v -1.070736 -0.253214 -1.070736 -0.253215 -1.070219 l -5.2e-4,-0.253214 v -1.070736 -0.252697 -1.0712532 -0.252698 -1.070735 -0.252698 l -5.2e-4,-1.070736 v -0.253214 -1.070736 -0.252698 -1.070735 -0.253215 l -5.1e-4,-1.070735 v -0.252698 -1.070736 -0.253214 -1.070736 -0.252698 l -5.2e-4,-1.070735 v -0.252698 -1.071253 -0.252697 -1.070736 z m -1.32343,0 v 1.070736 l 5.1e-4,0.252697 v 1.071253 0.252698 1.071252 0.252698 1.070735 0.253215 1.070219 0.253214 1.070736 0.253214 1.070736 0.252698 l 5.2e-4,1.071252 v 0.252698 1.070736 0.252697 1.071253 0.252698 1.0712522 0.252698 1.070736 0.252697 1.070736 0.253214 l 5.2e-4,1.070736 v 0.253215 1.070735 l 1.07073,-5.16e-4 v -1.070736 -0.253215 -1.070735 -0.253215 l -5.1e-4,-1.070219 v -0.253214 -1.070736 -0.252698 -1.0712522 -0.252698 -1.070736 -0.252697 l -5.2e-4,-1.071253 v -0.252697 -1.071253 -0.252698 -1.070219 -0.253214 -1.070736 -0.253214 l -5.2e-4,-1.070736 v -0.253214 -1.070219 -0.252698 -1.071252 -0.252698 -1.071253 -0.252697 -1.070736 z m -1.32292,0 v 1.071252 0.252698 1.070736 0.252698 1.071252 0.252698 1.070735 0.253215 l 5.2e-4,1.070736 v 0.253214 1.070736 0.253214 1.070219 0.252698 1.071252 0.252698 1.071253 0.252697 1.071253 0.252697 1.0712532 0.252698 1.070735 0.252698 1.070736 0.253214 1.070736 0.253214 1.070736 l 1.07125,-5.17e-4 v -1.070735 -0.253215 l -5.2e-4,-1.070736 v -0.253214 -1.070219 -0.253214 -1.070736 -0.252698 -1.0712522 -0.252698 -1.071253 -0.252697 -1.070736 -0.252698 l -5.1e-4,-1.071252 v -0.252698 -1.070736 -0.253214 -1.070736 -0.252697 -1.070736 -0.253215 -1.070735 -0.252698 -1.071252 -0.252698 -1.071253 l -5.2e-4,-0.252697 v -1.070736 z m 11.65975,18.5280682 -1.07073,5.17e-4 h -0.2527 l -1.07073,5.16e-4 h -0.2527 l -1.07074,5.17e-4 h -0.25321 l -1.07022,5.17e-4 h -0.25322 l -1.07073,5.17e-4 5.1e-4,1.070735 1.07022,-5.17e-4 h 0.25322 l 1.07073,-5.16e-4 h 0.25322 l 1.07022,-5.17e-4 0.2527,-5.17e-4 h 1.07125 l 0.2527,-5.17e-4 1.07073,-5.16e-4 z m 0,-1.323434 -1.07125,5.17e-4 h -0.2527 l -1.07073,5.17e-4 h -0.2527 l -1.07022,5.17e-4 h -0.25321 l -1.07074,5.16e-4 h -0.2527 l -1.07073,5.17e-4 v 1.070736 l 1.07073,-5.17e-4 0.25322,-5.17e-4 h 1.07022 l 0.25321,-5.16e-4 1.07074,-5.17e-4 h 0.2527 l 1.07073,-5.17e-4 h 0.2527 l 1.07073,-5.17e-4 z m -1.07125,-1.323433 -0.2527,5.17e-4 h -1.07073 l -0.2527,5.16e-4 h -1.07074 l -0.25321,5.17e-4 h -1.07022 l -0.25321,5.17e-4 h -1.07022 v 1.070736 l 1.07073,-5.17e-4 h 0.2527 l 1.07074,-5.17e-4 h 0.25269 l 1.07074,-5.17e-4 h 0.2527 l 1.07073,-5.16e-4 h 0.2527 l 1.07074,-5.17e-4 v -1.070219 z m -0.25321,-1.323434 -1.07074,5.17e-4 h -0.2527 l -1.07073,5.17e-4 h -0.2527 l -1.07074,5.17e-4 h -0.25269 l -1.07074,5.17e-4 5.2e-4,1.070735 1.07022,-5.17e-4 h 0.25321 l 1.07022,-5.16e-4 h 0.25321 l 1.07022,-5.17e-4 h 0.2527 l 1.07125,-5.17e-4 h 0.2527 l 1.07074,-5.17e-4 -5.2e-4,-1.070219 h -1.07073 z" />
  </g>
  <g
     id="g122"
     transform="rotate(180,54.406133,31.117731)">
    <path
       id="path122"
       style="display:inline;fill:#828282;fill-opacity:1;stroke:none;stroke-width:0.0132292;stroke-linecap:round;stroke-opacity:1"
       d="m 96.93556,42.630974 -1.07022,5.17e-4 v 1.070737 0.252697 1.071253 0.252698 l 5.1e-4,1.070735 v 0.252698 1.070736 0.253214 1.070736 0.252698 l 5.2e-4,1.070735 v 0.253215 1.070735 0.252698 1.070736 0.252698 l 5.2e-4,1.071252 v 0.252698 1.070735 0.252698 1.071253 0.252697 1.070736 l 5.1e-4,0.252698 v 1.070735 0.253215 1.070736 0.253214 1.070219 l 1.07074,-5.17e-4 V 61.16266 60.909446 l -5.2e-4,-1.070736 v -0.253214 -1.070219 -0.253215 -1.070735 -0.252698 l -5.1e-4,-1.070736 V 55.615195 54.543943 54.291245 53.22051 52.967812 l -5.2e-4,-1.071253 v -0.252697 -1.070736 -0.252698 -1.070735 -0.253215 l -5.2e-4,-1.070736 v -0.252697 -1.070736 -0.252698 -1.071252 l -5.1e-4,-0.252698 v -1.070736 -0.252697 z m -2.39314,5.17e-4 v 1.070737 0.252697 1.071253 0.252698 1.071252 0.252698 1.070219 0.253214 l 5.2e-4,1.070736 v 0.253214 1.070736 0.252698 1.070735 0.252698 1.071253 0.252697 l 5.1e-4,1.071253 v 0.252697 1.070736 0.252698 1.071252 0.252698 1.070736 0.252697 l 5.2e-4,1.070736 v 0.253215 1.070735 0.253215 1.070219 h 1.07074 v -1.070736 -0.253214 -1.070736 -0.253215 -1.070219 l -5.2e-4,-0.253214 V 57.191843 56.939146 55.867893 55.615195 54.54446 54.291762 l -5.2e-4,-1.070736 v -0.253214 -1.070736 -0.252698 -1.070735 -0.253215 l -5.1e-4,-1.070735 v -0.252698 -1.070736 -0.253214 -1.070736 -0.252698 l -5.2e-4,-1.070735 v -0.252698 -1.071253 -0.252697 -1.070737 z m -1.32343,0 v 1.070737 l 5.1e-4,0.252697 v 1.071253 0.252698 1.071252 0.252698 1.070735 0.253215 1.070219 0.253214 1.070736 0.253214 1.070736 0.252698 l 5.2e-4,1.071252 v 0.252698 1.070736 0.252697 1.071253 0.252698 1.071252 0.252698 1.070736 0.252697 1.070736 0.253214 l 5.2e-4,1.070736 v 0.253215 1.070735 l 1.07073,-5.16e-4 V 61.163694 60.910479 59.839744 59.586529 L 94.29076,58.51631 V 58.263096 57.19236 56.939662 55.86841 55.615712 54.544976 54.292279 l -5.2e-4,-1.071253 v -0.252697 -1.071253 -0.252698 -1.070219 -0.253214 -1.070736 -0.253214 l -5.2e-4,-1.070736 v -0.253214 -1.070219 -0.252698 -1.071252 -0.252698 -1.071253 -0.252697 -1.070737 z m -1.32292,0 v 1.071253 0.252698 1.070736 0.252698 1.071252 0.252698 1.070735 0.253215 l 5.2e-4,1.070736 v 0.253214 1.070736 0.253214 1.070219 0.252698 1.071252 0.252698 1.071253 0.252697 1.071253 0.252697 1.071253 0.252698 1.070735 0.252698 1.070736 0.253214 1.070736 0.253214 1.070736 l 1.07125,-5.17e-4 v -1.070735 -0.253215 l -5.2e-4,-1.070736 v -0.253214 -1.070219 -0.253214 -1.070736 -0.252698 -1.071252 -0.252698 -1.071253 -0.252697 -1.070736 -0.252698 l -5.1e-4,-1.071252 v -0.252698 -1.070736 -0.253214 -1.070736 -0.252697 -1.070736 -0.253215 -1.070735 -0.252698 -1.071252 -0.252698 -1.071253 l -5.2e-4,-0.252697 v -1.070737 z m 11.65975,18.528069 -1.07073,5.17e-4 h -0.2527 l -1.07073,5.16e-4 h -0.2527 l -1.07074,5.17e-4 h -0.25321 l -1.07022,5.17e-4 h -0.25322 l -1.07073,5.17e-4 5.1e-4,1.070735 1.07022,-5.17e-4 h 0.25322 l 1.07073,-5.16e-4 h 0.25322 l 1.07022,-5.17e-4 0.2527,-5.17e-4 h 1.07125 l 0.2527,-5.17e-4 1.07073,-5.16e-4 z m 0,-1.323434 -1.07125,5.17e-4 h -0.2527 l -1.07073,5.17e-4 h -0.2527 l -1.07022,5.17e-4 h -0.25321 l -1.07074,5.16e-4 h -0.2527 l -1.07073,5.17e-4 v 1.070736 l 1.07073,-5.17e-4 0.25322,-5.17e-4 h 1.07022 l 0.25321,-5.16e-4 1.07074,-5.17e-4 h 0.2527 l 1.07073,-5.17e-4 h 0.2527 l 1.07073,-5.17e-4 z m -1.07125,-1.323433 -0.2527,5.17e-4 h -1.07073 l -0.2527,5.16e-4 H 99.8377 l -0.25321,5.17e-4 h -1.07022 l -0.25321,5.17e-4 h -1.07022 v 1.070736 l 1.07073,-5.17e-4 h 0.2527 l 1.07074,-5.17e-4 h 0.25269 l 1.07074,-5.17e-4 h 0.2527 l 1.07073,-5.16e-4 h 0.2527 l 1.07074,-5.17e-4 v -1.070219 z m -0.25321,-1.323434 -1.07074,5.17e-4 h -0.2527 l -1.07073,5.17e-4 h -0.2527 l -1.07074,5.17e-4 h -0.25269 l -1.07074,5.17e-4 5.2e-4,1.070735 1.07022,-5.17e-4 h 0.25321 l 1.07022,-5.16e-4 h 0.25321 l 1.07022,-5.17e-4 h 0.2527 l 1.07125,-5.17e-4 h 0.2527 l 1.07074,-5.17e-4 -5.2e-4,-1.070219 h -1.07073 z" />
  </g>
</svg>
