<?xml version="1.0" encoding="UTF-8" standalone="no"?>
<!-- Created with Inkscape (http://www.inkscape.org/) -->

<svg
   width="49.947266"
   height="50"
   viewBox="0 0 13.215214 13.229166"
   version="1.1"
   id="svg1"
   xmlns="http://www.w3.org/2000/svg"
   xmlns:svg="http://www.w3.org/2000/svg">
  <defs
     id="defs1" />
  <g
     id="g49"
     transform="translate(-58.208332,-6.614583)">
    <path
       id="path96"
       style="fill:#000000;stroke:none;stroke-width:0.0132292;stroke-linecap:round"
       d="m 58.869792,6.6145832 c -0.365303,3e-7 -0.661459,0.2961554 -0.661458,0.6614584 v 3.3072914 1.322917 2.645833 1.322917 3.307291 c -10e-7,0.36531 0.296148,0.661459 0.661458,0.661459 h 9.542053 c 0.365313,0 0.661458,-0.296146 0.661458,-0.661459 0,-0.365312 -0.296145,-0.661458 -0.661458,-0.661458 H 59.53125 V 15.875 14.552083 11.90625 10.583333 7.2760416 c 0,-0.365303 -0.296155,-0.6614581 -0.661458,-0.6614584 z M 61.9125,10.583333 c -0.423995,0.0099 -0.817566,0.222399 -1.058333,0.571542 -0.163297,0.217324 -0.255682,0.479683 -0.264583,0.751375 0.0089,0.271693 0.101285,0.53405 0.264583,0.751375 0.240767,0.349143 0.634337,0.561687 1.058333,0.571541 0.730624,0 1.322916,-0.592293 1.322917,-1.322916 -10e-7,-0.730622 -0.592295,-1.322916 -1.322917,-1.322917 z m 2.917135,0.0067 c -0.727405,8.44e-4 -1.317673,0.588803 -1.321367,1.316199 -5.22e-4,0.0022 -10e-4,0.0045 -0.0016,0.0067 1e-6,0.730625 0.592292,1.322916 1.322917,1.322916 0.730625,0 1.322916,-0.592291 1.322916,-1.322916 -1.66e-4,-0.0022 -3.38e-4,-0.0045 -5.16e-4,-0.0067 -0.0037,-0.727799 -0.594592,-1.315923 -1.3224,-1.316199 z m 2.914034,0 c -0.727402,8.44e-4 -1.317673,0.588806 -1.321367,1.316199 -5.22e-4,0.0022 -0.001,0.0045 -0.0016,0.0067 10e-7,0.730625 0.592292,1.322916 1.322917,1.322916 0.410508,-1.62e-4 0.797684,-0.190886 1.047998,-0.516247 0.178111,-0.231202 0.274769,-0.514817 0.274918,-0.806669 -1.66e-4,-0.0022 -3.38e-4,-0.0045 -5.16e-4,-0.0067 -0.0014,-0.289667 -0.09777,-0.570885 -0.274402,-0.800468 -0.250419,-0.325166 -0.637581,-0.515692 -1.047998,-0.515731 z m -1.597836,2.639115 c -0.730624,10e-7 -1.322916,0.592292 -1.322916,1.322917 0,0.730625 0.592292,1.322916 1.322916,1.322917 0.730625,-10e-7 1.322916,-0.592292 1.322917,-1.322917 -10e-7,-0.730625 -0.592292,-1.322916 -1.322917,-1.322917 z m -2.917134,-0.0067 c -0.730625,0 -1.322916,0.592291 -1.322917,1.322916 5.11e-4,0.0022 10e-4,0.0045 0.0016,0.0067 0.0037,0.727396 0.593961,1.315355 1.321366,1.316199 0.727808,-2.76e-4 1.318703,-0.5884 1.3224,-1.316199 1.78e-4,-0.0022 3.5e-4,-0.0045 5.17e-4,-0.0067 -10e-7,-0.730625 -0.592292,-1.322916 -1.322917,-1.322916 z M 61.220036,6.6145832 c -0.365308,3e-7 -0.661458,0.2961511 -0.661458,0.6614584 0,0.3653073 0.29615,0.6614581 0.661458,0.6614583 h 8.880595 v 2.6458331 1.322917 2.645833 1.322917 3.307291 c 0,0.365312 0.296146,0.661459 0.661458,0.661459 0.365312,0 0.661458,-0.296147 0.661458,-0.661459 V 15.875 14.552083 11.90625 10.583333 7.2760416 c 0,-0.3653095 -0.296148,-0.6614581 -0.661458,-0.6614584 z" />
  </g>
</svg>
