<?xml version="1.0" encoding="UTF-8" standalone="no"?>
<!-- Created with Inkscape (http://www.inkscape.org/) -->

<svg
   width="49.592255"
   height="45.175037"
   viewBox="0 0 13.121284 11.952562"
   version="1.1"
   id="svg1"
   xmlns="http://www.w3.org/2000/svg"
   xmlns:svg="http://www.w3.org/2000/svg">
  <defs
     id="defs1" />
  <g
     id="layer8"
     transform="translate(-130.98334,-39.073914)">
    <path
       id="path1"
       style="fill: #dfae3b;fill-opacity:1;stroke:none;stroke-width:0.0132292;stroke-linecap:round"
       d="m 130.98334,39.075472 c 4.36683,3.983677 8.73385,7.967325 13.10069,11.951004 h 0.0206 v -11.95256 h -13.12129 z m 11.87539,11.951004 c -3.95848,-3.611138 -7.91693,-7.222427 -11.87539,-10.833564 v 1.117129 c 3.55035,3.238833 7.10069,6.4776 10.65105,9.716435 z m -2.44933,0 c -3.14201,-2.866313 -6.28406,-5.732684 -9.42606,-8.598995 v 1.117129 c 2.73379,2.493923 5.46759,4.987942 8.20139,7.481866 z m -2.44934,0 c -2.32557,-2.121508 -4.65117,-4.242918 -6.97672,-6.364427 v 1.11744 c 1.91722,1.748997 3.83451,3.497989 5.75174,5.246987 z m -2.44966,0 c -1.50901,-1.376609 -3.01806,-2.753249 -4.52706,-4.129858 v 1.117439 c 1.10076,1.004183 2.20163,2.008237 3.30239,3.012419 z m -2.44933,0 c -0.6926,-0.631833 -1.38513,-1.263769 -2.07773,-1.895601 v 1.117752 c 0.28423,0.259295 0.56851,0.518553 0.85275,0.777849 z" />
  </g>
</svg>
