<?xml version="1.0" encoding="UTF-8" standalone="no"?>
<!-- Created with Inkscape (http://www.inkscape.org/) -->

<svg
   width="82.048828"
   height="61.999996"
   viewBox="0 0 21.708752 16.404165"
   version="1.1"
   id="svg1"
   xmlns="http://www.w3.org/2000/svg"
   xmlns:svg="http://www.w3.org/2000/svg">
  <defs
     id="defs1" />
  <g
     id="layer1"
     transform="translate(-219.60468,-48.947914)">
    <path
       id="path33"
       style="fill:#000000;fill-opacity:1;stroke:none;stroke-width:0.0132292;stroke-linecap:round"
       d="m 224.89841,54.239583 v 0.529166 0.79375 l 5.2e-4,0.529167 v 0.79375 0.529167 l 5.2e-4,0.79375 v 0.529166 l 5.1e-4,0.79375 v 0.529167 0.79375 l 5.2e-4,0.529167 v 0.79375 0.529166 l 5.2e-4,0.79375 v 0.529167 0.79375 l 5.1e-4,0.529167 h 0.52814 0.7953 0.52865 0.79478 0.52813 0.79531 0.52865 0.7953 0.52813 0.7953 0.52865 0.7953 0.52813 0.7953 0.52865 0.7953 0.52814 0.7953 0.52865 0.7953 0.52813 0.7953 0.52865 0.7953 0.52813 l -5.1e-4,-0.529167 -5.2e-4,-0.79375 -5.2e-4,-0.529167 -5.1e-4,-0.79375 v -0.529166 l -0.001,-0.79375 v -0.529167 l -5.1e-4,-0.79375 -5.2e-4,-0.529167 -5.2e-4,-0.79375 -5.1e-4,-0.529166 -5.2e-4,-0.79375 -5.2e-4,-0.529167 -5.2e-4,-0.79375 -5.1e-4,-0.529167 -5.2e-4,-0.79375 v -0.529166 h -0.52813 -0.7953 -0.52814 -0.7953 -0.52813 -0.79478 -0.52865 -0.79479 -0.52813 -0.79478 -0.52865 -0.79479 -0.52813 -0.7953 -0.52813 -0.7953 -0.52814 -0.79478 -0.52813 -0.7953 -0.52814 -0.79478 -0.52865 -0.79478 z m 0.52814,0.529166 h 0.7953 0.52813 0.79478 0.52814 0.7953 0.52813 0.7953 0.52813 0.79479 0.52865 0.79478 0.52813 0.7953 0.52814 0.7953 0.52813 0.79478 0.52865 0.79479 0.52813 0.79478 0.52865 0.79479 l 5.2e-4,0.79375 5.1e-4,0.529167 5.2e-4,0.79375 5.2e-4,0.529167 5.1e-4,0.79375 5.2e-4,0.529166 5.2e-4,0.79375 5.1e-4,0.529167 5.2e-4,0.79375 v 0.529167 l 0.001,0.79375 v 0.529166 l 5.2e-4,0.79375 5.2e-4,0.529167 5.1e-4,0.79375 h -0.7953 -0.52865 -0.7953 -0.52813 -0.7953 -0.52865 -0.79478 -0.52814 -0.7953 -0.52865 -0.7953 -0.52813 -0.7953 -0.52865 -0.7953 -0.52813 -0.7953 -0.52865 -0.79531 -0.52813 -0.7953 -0.52865 -0.7953 v -0.79375 -0.529167 l -5.2e-4,-0.79375 v -0.529166 -0.79375 l -5.1e-4,-0.529167 v -0.79375 -0.529167 l -5.2e-4,-0.79375 v -0.529166 l -5.2e-4,-0.79375 v -0.529167 -0.79375 l -5.1e-4,-0.529167 z m -3.17552,-3.175 5.2e-4,0.529167 v 0.79375 0.529167 0.79375 l 5.1e-4,0.529166 v 0.79375 0.529167 0.79375 l 5.2e-4,0.529167 v 0.79375 0.529166 0.79375 l 5.2e-4,0.529167 v 0.79375 0.529167 0.79375 l 5.1e-4,0.529166 h 0.52814 0.7953 0.52813 0.7953 v -0.529166 h -0.7953 -0.52865 -0.7953 v -0.79375 -0.529167 -0.79375 l -5.2e-4,-0.529167 v -0.79375 -0.529166 -0.79375 l -5.1e-4,-0.529167 v -0.79375 -0.529167 -0.79375 l -5.2e-4,-0.529166 v -0.79375 -0.529167 -0.79375 h 0.79478 0.52814 0.7953 0.52813 0.79478 0.52814 0.7953 0.52813 0.79478 0.52814 0.7953 0.52813 0.79478 0.52814 0.7953 0.52813 0.79478 0.52814 0.7953 0.52813 0.79478 0.52814 0.7953 l 5.1e-4,0.79375 v 0.529167 l 5.2e-4,0.79375 h 0.52813 l -5.1e-4,-0.79375 v -0.529167 l -5.2e-4,-0.79375 -5.2e-4,-0.529167 h -0.52813 -0.79478 -0.52865 -0.79479 -0.52813 -0.79478 -0.52814 -0.7953 -0.52813 -0.79478 -0.52814 -0.7953 -0.52813 -0.79478 -0.52814 -0.7953 -0.52813 -0.79478 -0.52814 -0.7953 -0.52813 -0.79478 -0.52814 -0.7953 z m -2.64635,-2.645833 v 0.529167 0.79375 0.529166 l 5.2e-4,0.79375 v 0.529167 0.79375 0.529167 0.79375 0.529166 0.79375 l 5.1e-4,0.529167 v 0.79375 0.529167 0.79375 0.529166 0.79375 l 5.2e-4,0.529167 h 0.52813 0.79479 0.52865 0.7953 l -5.2e-4,-0.529167 h -0.79478 -0.52865 -0.7953 v -0.79375 -0.529166 -0.79375 -0.529167 -0.79375 l -5.2e-4,-0.529167 v -0.79375 -0.529166 -0.79375 -0.529167 -0.79375 -0.529167 l -5.2e-4,-0.79375 v -0.529166 -0.79375 h 0.79479 0.52813 0.7953 0.52813 0.79479 0.52813 0.79478 0.52814 0.7953 0.52813 0.79478 0.52814 0.79478 0.52813 0.7953 0.52814 0.79478 0.52813 0.79479 0.52813 0.79478 0.52865 0.79479 l 5.1e-4,0.79375 v 0.529166 l 5.2e-4,0.79375 h 0.52813 l -5.1e-4,-0.79375 v -0.529166 l -5.2e-4,-0.79375 -5.2e-4,-0.529167 h -0.52813 -0.79478 -0.52814 -0.79478 -0.52813 -0.79479 -0.52865 -0.79478 -0.52813 -0.79479 -0.52813 -0.79478 -0.52814 -0.7953 -0.52813 -0.79478 -0.52814 -0.79478 -0.52813 -0.79479 -0.52865 -0.79478 -0.52813 -0.79479 z m 6.61717,6.614583 v 0.529167 h 0.52865 0.79478 0.52813 0.7953 0.52814 0.7953 0.52813 0.79478 0.52865 0.79479 0.52813 0.7953 0.52865 0.79478 0.52814 0.7953 0.52813 0.7953 0.52813 0.79479 0.52865 l -5.2e-4,-0.529167 h -0.52865 -0.79478 -0.52814 -0.7953 -0.52813 -0.7953 -0.52813 -0.79479 -0.52865 -0.79478 -0.52813 -0.7953 -0.52814 -0.7953 -0.52813 -0.79478 -0.52865 -0.79479 -0.52813 -0.7953 z m 3.97081,1.322917 v 0.529167 l 5.2e-4,0.79375 v 0.529166 l 5.2e-4,0.79375 v 0.529167 l 5.2e-4,0.79375 v 0.529167 l 5.1e-4,0.79375 v 0.529166 l 5.2e-4,0.79375 v 0.529167 h 0.52813 v -0.529167 l -5.2e-4,-0.79375 v -0.529166 l -5.1e-4,-0.79375 v -0.529167 l -5.2e-4,-0.79375 v -0.529167 l -5.2e-4,-0.79375 v -0.529166 l -5.1e-4,-0.79375 v -0.529167 z m 5.29322,0 5.2e-4,0.529167 v 0.79375 l 5.2e-4,0.529166 5.1e-4,0.79375 v 0.529167 l 5.2e-4,0.79375 5.2e-4,0.529167 5.1e-4,0.79375 v 0.529166 l 5.2e-4,0.79375 5.2e-4,0.529167 h 0.52813 l -5.2e-4,-0.529167 -5.1e-4,-0.79375 v -0.529166 l -5.2e-4,-0.79375 -5.2e-4,-0.529167 -5.1e-4,-0.79375 v -0.529167 l -5.2e-4,-0.79375 -5.2e-4,-0.529166 v -0.79375 l -5.2e-4,-0.529167 z m -8.73487,1.322917 v 0.529166 h 0.7953 0.52814 0.7953 0.52813 v -0.529166 h -0.52865 -0.79478 -0.52814 z m 5.2e-4,1.322916 v 0.529167 h 0.7953 0.52813 0.7953 0.52814 v -0.529167 h -0.52865 -0.79479 -0.52813 z m 5.2e-4,1.322917 v 0.529167 h 0.7953 0.52813 0.7953 0.52813 v -0.529167 h -0.52865 -0.7953 -0.52813 z m 4.76405,-2.645833 5.1e-4,0.529166 h 0.52814 0.7953 0.52813 0.7953 0.52813 v -0.529166 h -0.52865 -0.7953 -0.52813 -0.79478 z m 5.29373,0 5.2e-4,0.529166 h 0.52813 0.7953 0.52814 0.7953 l -5.2e-4,-0.529166 h -0.7953 -0.52813 -0.79479 z m 5.2e-4,1.322916 5.2e-4,0.529167 h 0.52865 0.7953 0.52813 0.79478 v -0.529167 h -0.7953 -0.52813 -0.7953 z m 0.001,1.322917 5.2e-4,0.529167 h 0.52813 0.7953 0.52814 0.7953 l -5.2e-4,-0.529167 h -0.7953 -0.52813 -0.79479 z" />
  </g>
</svg>
