<?xml version="1.0" encoding="UTF-8" standalone="no"?>
<!-- Created with Inkscape (http://www.inkscape.org/) -->

<svg
   width="72.046875"
   height="52.000183"
   viewBox="0 0 19.062402 13.758382"
   version="1.1"
   id="svg1"
   xmlns="http://www.w3.org/2000/svg"
   xmlns:svg="http://www.w3.org/2000/svg">
  <defs
     id="defs1" />
  <g
     id="layer1"
     transform="translate(-223.04057,-52.916595)">
    <path
       id="path50"
       style="fill:#000000;fill-opacity:1;stroke:none;stroke-width:0.0132292;stroke-linecap:round"
       d="m 225.94636,55.562483 c -0.14017,0.0038 -0.25341,0.115684 -0.2589,0.255798 v 0.01757 0.255798 0.79375 l 5.1e-4,0.529167 v 0.79375 0.529167 l 5.2e-4,0.79375 v 0.529166 0.79375 0.529167 l 5.2e-4,0.79375 v 0.529167 0.79375 l 5.1e-4,0.529166 v 0.79375 0.529167 0.79375 l 5.2e-4,0.253731 v 0.0217 c 0.006,0.14008 0.11975,0.251382 0.25993,0.253732 h 0.26872 0.79582 0.52813 0.7953 0.52865 0.79479 0.52865 0.7953 0.52813 0.7953 0.52813 0.79582 0.52813 0.7953 0.52865 0.7953 0.52814 0.7953 0.52865 0.7953 0.52813 0.7953 0.52865 0.7953 0.26407 c 0.1451,-2.72e-4 0.26293,-0.117414 0.26406,-0.262517 v -0.0067 l -5.1e-4,-0.259932 -5.2e-4,-0.79375 -5.2e-4,-0.529167 -5.1e-4,-0.79375 v -0.529166 l -0.001,-0.79375 V 62.17708 l -5.1e-4,-0.79375 -5.2e-4,-0.529167 -5.2e-4,-0.79375 -5.1e-4,-0.529166 -5.2e-4,-0.79375 -5.2e-4,-0.529167 -5.2e-4,-0.79375 -5.1e-4,-0.529167 -5.2e-4,-0.79375 V 55.82708 c 0,-0.146043 -0.11822,-0.264491 -0.26407,-0.264583 h -0.26406 -0.7953 -0.52814 -0.7953 -0.52813 -0.79478 -0.52865 -0.79479 -0.52813 -0.79478 -0.52865 -0.79479 -0.52813 -0.7953 -0.52813 -0.7953 -0.52814 -0.79478 -0.52813 -0.79479 -0.52865 -0.79478 -0.52865 -0.7953 -0.2558 z m 0.26975,0.529166 h 0.7953 0.52813 0.79478 0.52865 0.79479 0.52813 0.79478 0.52865 0.79479 0.52865 0.79478 0.52865 0.79478 0.52865 0.79479 0.52813 0.79478 0.52865 0.79479 0.52813 0.79478 0.52865 0.79479 l 5.2e-4,0.79375 5.1e-4,0.529167 5.2e-4,0.79375 5.2e-4,0.529167 5.1e-4,0.79375 5.2e-4,0.529166 5.2e-4,0.79375 5.1e-4,0.529167 5.2e-4,0.79375 v 0.529167 l 10e-4,0.79375 v 0.529166 l 5.2e-4,0.79375 5.2e-4,0.529167 5.1e-4,0.79375 h -0.7953 -0.52865 -0.7953 -0.52813 -0.7953 -0.52865 -0.79478 -0.52814 -0.7953 -0.52865 -0.7953 -0.52813 -0.79582 -0.52813 -0.7953 -0.52813 -0.7953 -0.52865 -0.79531 -0.52813 -0.79582 -0.52813 -0.79582 v -0.79375 -0.529167 l -5.1e-4,-0.79375 v -0.529166 -0.79375 l -5.2e-4,-0.529167 v -0.79375 -0.529167 l -5.2e-4,-0.79375 v -0.529166 -0.79375 -0.529167 l -5.1e-4,-0.79375 v -0.529167 z m -2.91197,-3.175 c -0.14491,5.62e-4 -0.26242,0.117611 -0.26355,0.262517 v 0.0041 0.262516 0.79375 0.529167 0.79375 l 5.2e-4,0.529166 v 0.79375 0.529167 0.79375 l 5.1e-4,0.529167 v 0.79375 0.529166 0.79375 l 5.2e-4,0.529167 v 0.79375 0.529167 0.79375 l 5.2e-4,0.264583 c 0,0.145958 0.11771,0.264368 0.26303,0.264583 h 0.26562 0.79478 0.52813 0.7953 l -5.1e-4,-0.529166 h -0.79479 -0.52865 -0.79478 v -0.79375 -0.529167 -0.79375 l -5.2e-4,-0.529167 v -0.79375 -0.529166 -0.79375 l -5.1e-4,-0.529167 v -0.79375 -0.529167 -0.79375 l -5.2e-4,-0.529166 v -0.79375 -0.529167 -0.79375 h 0.79427 0.52813 0.7953 0.52813 0.7953 0.52865 0.79479 0.52813 0.79478 0.52814 0.79478 0.52865 0.79478 0.52865 0.79479 0.52813 0.79478 0.52865 0.79479 0.52813 0.79478 0.52814 0.7953 l 5.1e-4,0.79375 v 0.529167 l 5.2e-4,0.79375 h 0.52813 l -5.1e-4,-0.79375 v -0.529167 l -5.2e-4,-0.79375 -5.2e-4,-0.264067 v -0.0026 c -0.001,-0.145064 -0.11869,-0.262166 -0.26355,-0.262517 h -0.26458 -0.79478 -0.52865 -0.79479 -0.52813 -0.79427 -0.52865 -0.79478 -0.52865 -0.79478 -0.52814 -0.7953 -0.52813 -0.79478 -0.52814 -0.79478 -0.52865 -0.79478 -0.52814 -0.7953 -0.52813 -0.7953 -0.52813 -0.79479 z m 4.2354,3.96875 5.2e-4,0.529167 h 0.79478 0.52865 0.79478 0.52814 0.79478 0.52865 0.79478 0.52865 0.79479 0.52865 0.79478 0.52865 0.79478 0.52814 0.7953 0.52813 0.7953 0.52813 0.79479 l -5.2e-4,-0.529167 h -0.79478 -0.52814 -0.7953 -0.52813 -0.7953 -0.52813 -0.79479 -0.52865 -0.79478 -0.52813 -0.7953 -0.52814 -0.7953 -0.52813 -0.79478 -0.52865 -0.79479 -0.52813 z m 3.44217,1.322917 5.1e-4,0.529167 v 0.79375 l 5.2e-4,0.529166 v 0.79375 l 5.2e-4,0.529167 v 0.79375 l 5.2e-4,0.529167 5.1e-4,0.79375 v 0.529166 l 5.2e-4,0.79375 h 0.52813 l -5.2e-4,-0.79375 v -0.529166 l -5.1e-4,-0.79375 v -0.529167 l -5.2e-4,-0.79375 v -0.529167 l -5.2e-4,-0.79375 v -0.529166 l -5.1e-4,-0.79375 v -0.529167 z m 5.29373,0 5.2e-4,0.529167 v 0.79375 l 5.2e-4,0.529166 5.1e-4,0.79375 v 0.529167 l 5.2e-4,0.79375 5.2e-4,0.529167 5.1e-4,0.79375 v 0.529166 l 5.2e-4,0.79375 h 0.52813 l -5.1e-4,-0.79375 v -0.529166 l -5.2e-4,-0.79375 -5.2e-4,-0.529167 -5.1e-4,-0.79375 v -0.529167 l -5.2e-4,-0.79375 -5.2e-4,-0.529166 v -0.79375 l -5.2e-4,-0.529167 z m -3.96978,1.322917 5.1e-4,0.529166 h 0.52814 0.7953 0.52813 0.7953 0.52865 l -5.2e-4,-0.529166 h -0.52865 -0.79478 -0.52865 -0.79478 z m 5.1e-4,1.322916 5.2e-4,0.529167 h 0.52813 0.79531 0.52864 0.79479 0.52865 l -5.2e-4,-0.529167 h -0.52865 -0.79478 -0.52813 -0.79531 z m 5.2e-4,1.322917 5.2e-4,0.529167 h 0.52813 0.7953 0.52865 0.79479 0.52865 v -0.529167 h -0.52865 -0.79531 -0.52813 -0.7953 z m -3.97082,-2.645833 v 0.529166 h 0.52814 0.7953 0.52813 v -0.529166 h -0.52865 -0.79478 z m 9.26352,0 5.2e-4,0.529166 h 0.52813 0.7953 0.52814 l -5.2e-4,-0.529166 h -0.52813 -0.79479 z m -9.263,1.322916 v 0.529167 h 0.52813 0.7953 0.52814 v -0.529167 h -0.52865 -0.79479 z m 9.26352,0 5.2e-4,0.529167 h 0.52865 0.7953 0.52813 l -5.2e-4,-0.529167 h -0.52813 -0.7953 z" />
  </g>
</svg>
